<svg xmlns="http://www.w3.org/2000/svg" viewBox="0 0 64 64" fill="none">
  <rect width="64" height="64" rx="14" fill="#0F1219"/>
  <!-- Plane body -->
  <path d="M32 10 C32 10 36 18 36 28 L50 36 L50 40 L36 37 L35 48 L40 50 L40 54 L32 51 L24 54 L24 50 L29 48 L28 37 L14 40 L14 36 L28 28 C28 18 32 10 32 10Z" fill="#386BF2"/>
  <!-- Glow overlay -->
  <path d="M32 10 C32 10 35 17 35.5 26 L49 34.5 L49 38 L35 35 L34 47 L38.5 49 L38.5 52.5 L32 50 L25.5 52.5 L25.5 49 L30 47 L29 35 L15 38 L15 34.5 L28.5 26 C29 17 32 10 32 10Z" fill="#614BE1" opacity="0.5"/>
</svg>
