<svg xmlns="http://www.w3.org/2000/svg" style="display:none">
  <symbol id="plane-icon" viewBox="0 0 24 24">
    <path d="M21 16v-2l-8-5V3.5A1.5 1.5 0 0 0 11.5 2 1.5 1.5 0 0 0 10 3.5V9l-8 5v2l8-2.5V19l-2 1.5V22l3.5-1 3.5 1v-1.5L13 19v-5.5z" fill="currentColor"/>
  </symbol>
  <symbol id="plane-takeoff-icon" viewBox="0 0 24 24">
    <path d="M2.5 19h19v2h-19zM22.07 9.64c-.21-.8-1.04-1.28-1.84-1.06L14.92 10 7 5.37 5.09 5.9l3.79 5.18-4.68 1.26-1.84-1.42L.81 11.46 3.5 14l.74.2 14.49-3.89c.81-.21 1.29-1.05 1.08-1.85z" fill="currentColor"/>
  </symbol>
</svg>
